
        <svg xmlns="http://www.w3.org/2000/svg" xmlns:xlink="http://www.w3.org/1999/xlink" version="1.1" width="3152.4968911577985" 
        height="628.0965704561817" viewBox="0 -22.87453367366974 3152.4968911577985 628.0965704561817">
			<rect fill="#000000" width="3152.4968911577985" height="628.0965704561817"/>
			<g transform="scale(7.624844557889914) translate(10, 10)">
				<defs id="SvgjsDefs1051"></defs><g id="SvgjsG1052" featureKey="symbolContainer" transform="matrix(0.31402188582118395,0,0,0.31402188582118395,0.00010975744357439415,-2.999945832530405)" fill="#ffffff"><path xmlns="http://www.w3.org/2000/svg" d="M17.914 148.907zM22.657 154.94a90.586 90.586 0 0 0 5.861 6.251c6.914 6.805 15.159 12.525 24.004 16.851 3.259 1.526 6.265 3.107 9.787 4.468.88.338 1.779.7 2.724 1.026.953.302 1.941.604 2.974.903 1.027.321 2.122.549 3.267.786 1.146.23 2.336.493 3.614.624a91.24 91.24 0 0 1-18.434-5.99 93.833 93.833 0 0 1-16.873-9.842c-10.548-7.727-19.57-17.648-26.16-28.989-.272-.339-.685-.985-1.18-1.808l-.796-1.348-.803-1.551c-.534-1.076-1.149-2.168-1.62-3.226a71.281 71.281 0 0 0-1.326-2.748c2.048 5.101 4.412 9.563 7.059 13.806a93.473 93.473 0 0 0 3.869 5.697c-.192-.259-.392-.511-.583-.771a95.012 95.012 0 0 0 4.6 5.841l.016.02zM18.039 149.078l-.125-.17.125.17zM1.335 106.042l-.483-3.875c.256 2.365.553 5.008 1.096 7.654l-.327-1.879a23.961 23.961 0 0 1-.286-1.9zM85.812 185.575c6.652.673 13.628.472 20.461-.609 6.837-1.077 13.524-2.987 19.741-5.449-11.45 4.503-23.602 6.506-35.49 6.171-1.591-.025-3.159 0-4.712-.113z"></path><path xmlns="http://www.w3.org/2000/svg" d="M46.426 171.967l-.259-.165c.087.055.172.111.259.165zM46.167 171.802zM43.653 170.135zM56.077 177.284A83.837 83.837 0 0 0 73.2 183.1c-9.688-2.21-18.805-6.109-26.774-11.133 3.06 1.947 6.277 3.749 9.651 5.317zM177.002 107.094c.098-1.58.296-3.238.346-4.027.594-5.071.77-9.401.745-13.745-.11-.783-.425-2.25-.55-3.918-.153-1.672-.378-3.309-.568-4.924-.289-1.601-.538-3.186-.854-4.74 2.275 11.617 2.237 23.279.144 34.282a94.97 94.97 0 0 1 .737-2.928z"></path><path xmlns="http://www.w3.org/2000/svg" d="M.887 83.482c.848-6.9 2.653-13.626 4.37-18.107l-.695 3.28c.429-.961 1.122-3.194 2.067-5.557l.682-1.802.753-1.747c.5-1.131.92-2.203 1.363-3.025-.303.771-.595 1.602-.947 2.436-.345.837-.732 1.687-1.101 2.542l1.514-3.409A111.863 111.863 0 0 0 4.954 69.8c-1.133 4.352-2.029 8.926-2.511 13.032-.14 1.024-.189 2.024-.28 2.978-.067.954-.183 1.864-.192 2.724-.042 1.719-.1 3.224-.071 4.428.105 2.409.25 3.61.459 2.939.411-1.333.403-8.188 1.837-16.767.767-4.276 1.868-8.966 3.362-13.561 1.483-4.599 3.427-9.058 5.44-12.992l-.592 1.292-.545 1.331-1.116 2.691-1.024 2.78-.521 1.402c-.153.476-.308.954-.461 1.434-1.32 3.807-2.307 7.816-3.167 11.857l-.559 3.052c-.205 1.014-.292 2.046-.444 3.067-.318 2.041-.434 4.097-.611 6.129-.199 4.074-.239 8.098.13 11.946-.015-.914-.03-1.726-.017-2.512l.115-2.355c.048-.809.039-1.667.115-2.65.07-.983.134-2.091.19-3.402.391-6.608 1.572-13.15 3.408-19.481 1.75-6.358 3.814-11.957 6.889-17.03l.801-1.526c.542-1.024.993-2.034 1.566-3.064.653-1.13 1.278-1.976 1.784-2.751.521-.767.963-1.441 1.469-2.095l3.682-5.082c.075-.009-.022.185-.2.473a28.962 28.962 0 0 1 1.959-2.49c.755-.875 1.488-1.803 2.109-2.569.146-.007.288-.011.623-.251 8.65-9.197 19.295-16.692 31.291-21.417l2.667-1.039 2.7-.899 1.343-.448 1.36-.38 2.71-.753c1.55-.373 3.12-.751 4.721-1.091l2.437-.426c.819-.141 1.642-.3 2.484-.378 1.674-.201 3.134-.625 3.921-.729 4.369-.249 8.73-.199 13.849.216.397.007 1.015.043 1.732.082.717.041 1.537.061 2.332.134.932.21 1.927.418 2.971.621 6.369.988 12.527 2.754 18.386 5.103l-.007-.028 2.244.894 2.29 1.058c1.571.684 3.11 1.559 4.7 2.383.798.407 1.554.904 2.338 1.354.77.474 1.576.894 2.32 1.412 1.508 1.002 3.037 1.961 4.446 3.032a99.912 99.912 0 0 1 6.6 5.198c.046.042.094.081.14.122l.042.038 1.457 1.322 1.394 1.391 1.395 1.392c.462.467.89.967 1.337 1.449-.216-.35-.208-.491-.2-.63-.689-.66-1.504-1.441-2.309-2.21 1.343 1.222 2.515 2.327 3.477 3.229.371.474.776.94 1.16 1.449l1.186 1.566 1.261 1.629 1.255 1.752c2.226 2.838 4.191 5.874 6.057 8.97.864 1.588 1.817 3.131 2.586 4.774l1.213 2.436 1.092 2.497c.314.533.192.022.231-.068 1.225 2.962 2.21 6.042 3.102 9.146a88.212 88.212 0 0 1 3.408 17.211c.225 1.378.321 2.772.52 4.153l-.123 2.924c-.001 1.103.057 2.206.01 3.311l-.128 3.326c-.016.75-.124 1.569-.187 2.459-.084.888-.128 1.846-.256 2.856l-.412 3.192c-.132 1.119-.387 2.269-.583 3.471a90.635 90.635 0 0 1-4.312 15.482c-.242.826-.427 1.486-.592 1.855-.627 1.501-1.296 2.954-1.942 4.385-.723 1.394-1.386 2.788-2.127 4.108a86.09 86.09 0 0 1-7.949 12.379c-.336.439-.649.885-.987 1.297l-.998 1.206c-.66.779-1.25 1.558-1.876 2.234-1.251 1.352-2.301 2.606-3.286 3.549-1.128 1.178-1.027 1.233-.246.665a35.07 35.07 0 0 0 1.608-1.262l2.122-1.914c.776-.677 1.519-1.441 2.235-2.161.708-.725 1.416-1.386 1.962-1.984 1.101-1.191 1.824-1.926 1.67-1.599-1.777 3.345-5.013 7.471-9.743 12.035-2.413 2.227-5.128 4.647-8.339 6.98-1.566 1.221-3.307 2.338-5.082 3.558-1.834 1.123-3.708 2.353-5.757 3.445-4.484 2.442 3.365-1.475 3.577-1.512a22.87 22.87 0 0 1-2.377 1.64c-1.478.786-2.943 1.597-4.474 2.273-.895.411-1.774.855-2.679 1.239l-2.729 1.122 1.444-.568c2.952-1.173 5.711-2.555 8.202-3.922-.936.566-1.96 1.221-3.082 1.812-1.203.622-2.448 1.302-3.697 1.909l-3.625 1.686c12.968-4.711 24.885-12.507 34.319-22.67 4.723-5.066 8.935-10.631 12.369-16.651a93.904 93.904 0 0 0 8.288-18.999c-3.154 9.93-8.071 19.052-13.981 26.765 10.744-14.507 17.15-32.293 17.999-50.636-.001 1.011-.101 2.018-.168 3.025-.083 1.007-.123 2.018-.241 3.022-.257 2.005-.441 4.021-.827 6.009-.624 4-1.636 7.931-2.782 11.815 2.262-7.021 3.613-14.424 4.145-21.869.554-7.451.092-14.947-1.057-22.211 1.974 9.622 2.301 20.524.619 31.298 1.182-6.949 1.482-14.112 1.028-21.214-.102-2.713-.422-5.407-.685-7.901-.377-2.476-.662-4.762-1.027-6.611 1.445 6.826 2.015 12.648 2.293 18.136-.267-11.977-2.748-24.112-7.62-35.511 2.659 6.191 4.842 12.851 6.175 19.698 1.34 6.84 1.897 13.838 1.58 20.57-.015-.788.018-1.575-.028-2.366l-.107-2.391c.287 10.85-1.384 21.604-4.696 31.717-1.662 5.056-3.715 9.969-6.2 14.644a95.521 95.521 0 0 1-8.56 13.316c3.673-4.29 7.551-10.354 10.646-17.015 3.081-6.675 5.368-13.894 6.941-20.199-2.314 11.322-6.907 22.494-13.571 32.471-6.646 9.985-15.351 18.764-25.423 25.502-10.06 6.759-21.474 11.437-33.187 13.748a94.608 94.608 0 0 1-17.657 1.809 94.462 94.462 0 0 1-17.361-1.515l3.005.571c1.002.19 2.018.295 3.026.445 2.016.324 4.055.446 6.087.633 4.073.229 8.168.306 12.25-.005 4.089-.217 8.152-.827 12.196-1.572 2.006-.456 4.036-.829 6.017-1.414.994-.278 2-.521 2.987-.83l2.955-.958c-1.492.462-3.062 1.074-4.739 1.523l-2.101.618a91.772 91.772 0 0 0 12.91-4.496 89.46 89.46 0 0 0 5.651-2.705 96.653 96.653 0 0 1-10.714 4.872 98.407 98.407 0 0 1-21.66 5.382c-1.11.176-2.122.231-3.029.326l-2.428.24c-1.429.113-2.484.164-3.222.245-1.477.147-1.687.284-1.099.397.587.113 1.971.203 3.673.251 1.697-.01 3.71-.101 5.541-.268 18.397-1.887 35.288-9.107 48.824-19.916 13.545-10.811 23.919-25.172 29.701-41.467.363-.946.642-1.922.944-2.89.293-.971.617-1.932.882-2.912.491-1.97 1.072-3.917 1.448-5.917l.619-2.985.487-3.012.241-1.507.172-1.517.342-3.034c.698-8.114.422-16.315-.812-24.363-.66-4.554-1.82-9.961-3.315-14.777l-1.15-3.484c-.4-1.107-.825-2.151-1.203-3.133l-.557-1.415-.571-1.271-.981-2.124c-3.134-6.359-7.072-12.424-11.682-18.065-4.605-5.643-9.896-10.868-15.861-15.418l-2.244-1.703-2.327-1.608-1.166-.806-1.203-.756-2.417-1.508c-3.295-1.904-6.67-3.739-10.228-5.261-3.521-1.598-7.206-2.895-10.957-4.055-1.895-.52-3.781-1.1-5.724-1.499-.968-.209-1.928-.463-2.907-.638l-2.944-.521C100.363.01 93.04-.285 85.724.265 78.412.83 71.069 2.218 64.028 4.614l-2.635.913c-.881.297-1.73.682-2.597 1.019-.858.359-1.735.673-2.577 1.069l-2.532 1.173c-.852.376-1.675.808-2.496 1.245l-2.469 1.297-2.402 1.412c-.8.472-1.606.933-2.372 1.458l-2.324 1.528c-.782.497-1.506 1.078-2.261 1.612-.741.554-1.51 1.07-2.226 1.654l-2.157 1.737c-.729.565-1.417 1.178-2.103 1.792l-2.063 1.83-1.971 1.919c-.656.639-1.319 1.271-1.93 1.951-5.031 5.298-9.451 11.078-13.066 17.194A99.518 99.518 0 0 0 5.18 64.379C.805 77.299-.45 90.402.134 102.237c-.126-4.872-.147-11.859.753-18.755zm141.132 90.446a96.807 96.807 0 0 0 8.765-6.389c-2.84 2.339-5.758 4.499-8.765 6.389zm40.217-54.282c-.299.901-.552 1.791-.882 2.641l-.957 2.523-.466 1.248-.513 1.231a108.54 108.54 0 0 0-.997 2.501 97.307 97.307 0 0 1-6.587 13.35c-2.521 4.275-5.443 8.281-8.565 12.04-1.542 1.899-3.222 3.66-4.874 5.421l-2.581 2.523c-.847.848-1.774 1.604-2.652 2.404-.736.64-1.478 1.266-2.225 1.882a90.696 90.696 0 0 0 7.896-7.312 89.808 89.808 0 0 1-11.689 10.188c-1.036.722-2.037 1.496-3.113 2.176l-3.247 2.069-3.43 1.949c-1.167.648-2.399 1.224-3.634 1.855a74.206 74.206 0 0 1 2.685-1.508c1.021-.567 2.092-1.237 3.138-1.85 1.054-.601 2.012-1.261 2.808-1.813.796-.552 1.42-1.01 1.745-1.306-.464.315-.936.617-1.406.924a92.477 92.477 0 0 0 1.507-1.015c-.021.023-.065.059-.101.091 10.932-7.466 20.245-17.277 27.223-28.462 7.009-11.175 11.57-23.781 13.46-36.601-.41 5.142-1.352 9.248-2.543 12.851zm-6.654-65.352zm-8.448-12.698a92.37 92.37 0 0 1 7.773 14.352c.25.549.486 1.106.719 1.664 4.963 12.154 7.221 25.192 6.89 38.036.084-4.25-.198-8.498-.669-12.71-.533-4.854-1.518-9.65-2.824-14.341-2.562-9.407-6.723-18.323-12.005-26.451.485.67.996 1.396 1.525 2.166a32.826 32.826 0 0 1 1.59 2.463l-.638-1.109-.689-1.079-1.378-2.156c-.938-1.424-1.955-2.796-2.934-4.192-1.062-1.334-2.069-2.712-3.174-4.011-.836-.953-1.637-1.938-2.485-2.879 2.992 3.155 5.801 6.54 8.299 10.247zM96.886 1.152c1.467.078 2.937.221 4.407.331 1.204.101 2.402.279 3.588.413.356.015.732.039 1.204.092.471.065 1.034.186 1.769.354 5.469.912 10.459 2.283 14.001 3.699 6.798 2.573 13.123 5.774 18.86 9.471 5.739 3.69 10.889 7.887 15.246 12.471 2.008 2.179 1.422 1.704.315.646l1.662 1.764c-.736-.734-1.459-1.478-2.206-2.196l-2.301-2.09c.56.49 1.918 1.663 2.845 2.522-7.389-7.539-16.026-13.799-25.375-18.404-9.356-4.603-19.431-7.446-29.502-8.581 1.618.18 2.412.22 3.168.24-1.085-.127-2.173-.301-3.274-.401-1.479-.097-2.955-.229-4.423-.301l-4.36-.103c1.444-.001 2.907.039 4.376.073z"></path><path xmlns="http://www.w3.org/2000/svg" d="M115.942 184.69l.426-.125c-.446.12-.885.252-1.334.366.304-.076.609-.15.908-.241zM160.424 146.151c4.235-5.587 7.977-12.263 10.366-18.014l-.029.006c-6.061 14.322-15.892 26.66-28.16 35.744a159.12 159.12 0 0 0 6.418-4.703c2.698-2.82 7.213-7.406 11.405-13.033zM35.35 162.846c7.172 6.412 15.821 11.992 25.448 15.751 3.754 1.413 7.585 2.651 11.503 3.523 1.944.502 3.929.812 5.899 1.181.987.175 1.987.272 2.979.412.994.129 1.986.275 2.987.333-4.519-.501-9.005-1.251-13.372-2.44-4.364-1.185-8.642-2.65-12.769-4.449a97.4 97.4 0 0 1-11.894-6.314c-3.786-2.408-7.376-5.097-10.781-7.997zM123.877 174.277l-2.219.871-2.266.756c-1.5.54-3.047.944-4.59 1.373 1.551-.39 3.111-.754 4.624-1.254l2.283-.698 2.23-.815c-.086-.044-.594.055-.062-.233zM97.683 179.965c-1.16.099-2.326.09-3.494.102-1.168.014-2.338.039-3.509-.038l1.576.148c.482.031.916.068 1.295.113 1.381-.118 2.752-.151 4.132-.325zM51.441 169.209c1.341.787 2.765 1.48 4.178 2.244.354.194.996.415 1.801.709-1.721-.739-3.37-1.655-5.046-2.505-.83-.441-1.629-.935-2.443-1.395-.812-.464-1.621-.927-2.389-1.445l.937.626.977.584 1.985 1.182z"></path></g><g id="SvgjsG1053" featureKey="symbolFeature-0" transform="matrix(0.6169494275920072,0,0,0.6169494275920072,9.532202289631972,7.381497205167543)" fill="#b59958"><g xmlns="http://www.w3.org/2000/svg"><path d="M59.946,26.279C59.105,12.738,48.262,1.895,34.721,1.054C20.399,0.177,7.854,10.603,6.186,24.82   c-0.252,2.149,0.479,4.259,2.007,5.786c0.951,0.951,1.187,2.399,0.585,3.603l-4.44,8.881C4.116,43.531,4,44.024,4,44.517   c0,1.312,0.787,2.475,2.006,2.963L9,48.677V63h10c4.963,0,9-4.037,9-9V25.425C28,24.64,28.64,24,29.425,24h0.756l0.206-0.728   c0.215-0.758,0.513-1.479,0.885-2.144l0.369-0.66l-1.54-1.54l2.828-2.828l1.54,1.54l0.66-0.369c0.664-0.372,1.386-0.67,2.144-0.885   L38,16.181V14h4v2.181l0.728,0.206c0.758,0.215,1.479,0.513,2.144,0.885l0.66,0.369l1.54-1.54l2.828,2.828l-1.54,1.54l0.369,0.66   c0.372,0.664,0.67,1.386,0.885,2.144L49.819,24H52v4h-2.181l-0.206,0.728c-0.215,0.758-0.513,1.479-0.885,2.144l-0.369,0.66   l1.54,1.54l-2.828,2.828l-1.54-1.54l-0.66,0.369c-0.664,0.372-1.386,0.67-2.144,0.885L42,35.819V38h-4v-2.181l-0.728-0.206   c-0.758-0.215-1.479-0.513-2.144-0.885l-0.66-0.369l-2.247,2.247l1.414,1.414l1.195-1.195c0.379,0.18,0.769,0.341,1.169,0.481V40h8   v-2.693c0.4-0.141,0.79-0.302,1.169-0.481l1.902,1.902l5.656-5.656l-1.902-1.902c0.18-0.379,0.341-0.769,0.481-1.169H54v-8h-2.693   c-0.141-0.4-0.302-0.79-0.481-1.169l1.902-1.902l-5.656-5.656l-1.902,1.902C44.79,14.995,44.4,14.834,44,14.693V12h-8v2.693   c-0.4,0.141-0.79,0.302-1.169,0.481l-1.902-1.902l-5.656,5.656l1.902,1.902c-0.192,0.405-0.363,0.824-0.511,1.254   C27.141,22.433,26,23.798,26,25.425V54c0,3.859-3.141,7-7,7h-8V47.323l-4.252-1.701C6.294,45.44,6,45.006,6,44.517   c0-0.184,0.044-0.367,0.126-0.532l4.44-8.881c0.987-1.975,0.602-4.35-0.96-5.911c-1.092-1.093-1.615-2.601-1.435-4.14   C9.717,11.891,21.328,2.216,34.598,3.05C47.133,3.828,57.172,13.867,57.95,26.402c0.434,6.989-1.956,13.636-6.729,18.715   C46.443,50.2,39.973,53,33,53h-3v2h3c7.421,0,14.594-3.103,19.679-8.513C57.834,41.001,60.415,33.824,59.946,26.279z"></path><path d="M40,32c3.309,0,6-2.691,6-6s-2.691-6-6-6s-6,2.691-6,6S36.691,32,40,32z M40,22c2.206,0,4,1.794,4,4s-1.794,4-4,4   s-4-1.794-4-4S37.794,22,40,22z"></path><rect x="39" y="42" width="2" height="2"></rect><rect x="39" y="46" width="2" height="2"></rect></g></g><g id="SvgjsG1054" featureKey="nameFeature-0" transform="matrix(0.7885121875837849,0,0,0.7885121875837849,75.11956507501036,-7.239242337126319)" fill="#ffffff"><path d="M20.02 16.934 l-10.469 0 l0 6.4063 l9.2773 0 l0 5.0977 l-9.2773 0 l0 6.3867 l10.469 0 l0 5.1758 l-16.367 0 l0 -28.223 l16.367 0 l0 5.1563 z M37.16834375 19.531 c4.8242 0 7.4805 2.5 7.4805 6.9531 l0 13.516 l-5.6445 0 l0 -12.305 c0 -2.6758 -1.6602 -3.6523 -3.5938 -3.6523 c-2.3242 0 -4.4336 1.1719 -4.4727 4.8828 l0 11.074 l-5.625 0 l0 -20.078 l5.625 0 l0 2.2266 c1.4063 -1.6602 3.5742 -2.6172 6.2305 -2.6172 z M63.9255 19.922 l5.3516 0 l0 18.574 c0 7.8125 -4.2383 10.977 -10.645 10.977 c-5.7617 0 -8.8867 -2.4219 -10.352 -6.2305 l4.668 -1.9922 c1.1328 2.5977 2.7734 3.8477 5.4688 3.8477 c3.5547 0 5.2148 -2.2266 5.2148 -6.1914 l0 -2.3438 c-1.1719 1.6016 -3.4766 2.7344 -6.0938 2.7344 c-4.9805 0 -9.1602 -3.9258 -9.1602 -9.9219 c0 -6.0156 4.1992 -9.8438 9.1992 -9.8438 c2.8125 0 5.1172 1.25 6.2109 3.0469 z M58.9845 34.7461 c2.9297 0 5.1953 -2.3828 5.1953 -5.3711 c0 -3.0078 -2.2266 -5.3906 -5.1953 -5.3906 c-2.9492 0 -5.1758 2.2852 -5.1758 5.3906 c0 3.0664 2.2656 5.3711 5.1758 5.3711 z M77.98833125 16.914 c-1.7773 0 -3.2617 -1.4453 -3.2617 -3.2422 c0 -1.7773 1.4844 -3.2227 3.2617 -3.2227 c1.7383 0 3.2227 1.4453 3.2227 3.2227 c0 1.7969 -1.4844 3.2422 -3.2227 3.2422 z M75.11723125 40 l0 -20.078 l5.6641 0 l0 20.078 l-5.6641 0 z M98.45740625 19.531 c4.8242 0 7.4805 2.5 7.4805 6.9531 l0 13.516 l-5.6445 0 l0 -12.305 c0 -2.6758 -1.6602 -3.6523 -3.5938 -3.6523 c-2.3242 0 -4.4336 1.1719 -4.4727 4.8828 l0 11.074 l-5.625 0 l0 -20.078 l5.625 0 l0 2.2266 c1.4063 -1.6602 3.5742 -2.6172 6.2305 -2.6172 z M130.2735625 29.668 l-0.058594 1.3477 l-14.883 0 c0.23438 3.3398 2.4609 4.9414 5.1367 4.9414 c2.0117 0 3.5742 -0.9375 4.3359 -2.7148 l5.1563 0.76172 c-1.3281 4.0625 -4.9414 6.3867 -9.4531 6.3867 c-6.4844 0 -10.723 -3.8281 -10.723 -10.43 s4.3555 -10.469 10.547 -10.469 c5.6836 0 9.9219 3.1445 9.9414 10.176 z M120.3715625 23.477 c-2.5586 0 -4.3359 1.1914 -4.8828 3.8672 l9.2188 0 c-0.29297 -2.5586 -2.0313 -3.8672 -4.3359 -3.8672 z M153.437625 29.668 l-0.058594 1.3477 l-14.883 0 c0.23438 3.3398 2.4609 4.9414 5.1367 4.9414 c2.0117 0 3.5742 -0.9375 4.3359 -2.7148 l5.1563 0.76172 c-1.3281 4.0625 -4.9414 6.3867 -9.4531 6.3867 c-6.4844 0 -10.723 -3.8281 -10.723 -10.43 s4.3555 -10.469 10.547 -10.469 c5.6836 0 9.9219 3.1445 9.9414 10.176 z M143.535625 23.477 c-2.5586 0 -4.3359 1.1914 -4.8828 3.8672 l9.2188 0 c-0.29297 -2.5586 -2.0313 -3.8672 -4.3359 -3.8672 z M163.1054875 23.105 c1.0156 -1.7773 3.6523 -3.418 6.5625 -3.418 l0 5.0195 c-4.2578 0 -6.2891 1.25 -6.2891 5.5078 l0 9.7852 l-5.6641 0 l0 -20.078 l5.3906 0 l0 3.1836 z M175.83989375 16.914 c-1.7773 0 -3.2617 -1.4453 -3.2617 -3.2422 c0 -1.7773 1.4844 -3.2227 3.2617 -3.2227 c1.7383 0 3.2227 1.4453 3.2227 3.2227 c0 1.7969 -1.4844 3.2422 -3.2227 3.2422 z M172.96879375 40 l0 -20.078 l5.6641 0 l0 20.078 l-5.6641 0 z M196.30896875 19.531 c4.8242 0 7.4805 2.5 7.4805 6.9531 l0 13.516 l-5.6445 0 l0 -12.305 c0 -2.6758 -1.6602 -3.6523 -3.5938 -3.6523 c-2.3242 0 -4.4336 1.1719 -4.4727 4.8828 l0 11.074 l-5.625 0 l0 -20.078 l5.625 0 l0 2.2266 c1.4063 -1.6602 3.5742 -2.6172 6.2305 -2.6172 z M223.066125 19.922 l5.3516 0 l0 18.574 c0 7.8125 -4.2383 10.977 -10.645 10.977 c-5.7617 0 -8.8867 -2.4219 -10.352 -6.2305 l4.668 -1.9922 c1.1328 2.5977 2.7734 3.8477 5.4688 3.8477 c3.5547 0 5.2148 -2.2266 5.2148 -6.1914 l0 -2.3438 c-1.1719 1.6016 -3.4766 2.7344 -6.0938 2.7344 c-4.9805 0 -9.1602 -3.9258 -9.1602 -9.9219 c0 -6.0156 4.1992 -9.8438 9.1992 -9.8438 c2.8125 0 5.1172 1.25 6.2109 3.0469 z M218.125125 34.7461 c2.9297 0 5.1953 -2.3828 5.1953 -5.3711 c0 -3.0078 -2.2266 -5.3906 -5.1953 -5.3906 c-2.9492 0 -5.1758 2.2852 -5.1758 5.3906 c0 3.0664 2.2656 5.3711 5.1758 5.3711 z M245.39058125 40 l0 -28.223 l5.8594 0 l0 28.223 l-5.8594 0 z M269.6488125 19.531 c4.8242 0 7.4805 2.5 7.4805 6.9531 l0 13.516 l-5.6445 0 l0 -12.305 c0 -2.6758 -1.6602 -3.6523 -3.5938 -3.6523 c-2.3242 0 -4.4336 1.1719 -4.4727 4.8828 l0 11.074 l-5.625 0 l0 -20.078 l5.625 0 l0 2.2266 c1.4063 -1.6602 3.5742 -2.6172 6.2305 -2.6172 z M289.64846875 40.39063 c-4.5117 0 -8.0078 -1.7773 -8.7305 -5.5859 l4.707 -1.3281 c0.60547 2.1484 2.1289 2.9883 4.0234 2.9883 c1.3867 0 2.8906 -0.42969 2.8516 -2.0117 c-0.019531 -2.0898 -3.1836 -2.2656 -6.3672 -3.3984 c-2.4023 -0.83984 -4.707 -2.1289 -4.707 -5.5078 c0 -4.1211 3.418 -6.0156 7.8711 -6.0156 c3.9063 0 7.168 1.4844 7.9492 5.3125 l-4.3555 0.97656 c-0.60547 -1.875 -1.9336 -2.5391 -3.5742 -2.5391 c-1.4844 0 -2.7539 0.52734 -2.7539 1.7773 c0 1.582 2.3242 1.8945 4.8438 2.5781 c3.1055 0.83984 6.5039 2.1875 6.5039 6.4844 c0 4.6094 -3.9258 6.2695 -8.2617 6.2695 z M309.43396875 40 c-3.9063 0 -6.1328 -2.2656 -6.1328 -6.2695 l0 -9.4922 l-3.9453 0 l0 -4.3164 l1.2695 0 c2.1289 0 3.3008 -0.82031 3.3008 -3.8281 l0 -2.6563 l5.0781 0 l0 6.4844 l4.1406 0 l0 4.3164 l-4.1406 0 l0 8.8867 c0 1.7969 0.87891 2.5977 2.3242 2.5977 l1.8164 0 l0 4.2773 l-3.7109 0 z M320.37114375 16.914 c-1.7773 0 -3.2617 -1.4453 -3.2617 -3.2422 c0 -1.7773 1.4844 -3.2227 3.2617 -3.2227 c1.7383 0 3.2227 1.4453 3.2227 3.2227 c0 1.7969 -1.4844 3.2422 -3.2227 3.2422 z M317.50004375 40 l0 -20.078 l5.6641 0 l0 20.078 l-5.6641 0 z M336.46521875 40 c-3.9063 0 -6.1328 -2.2656 -6.1328 -6.2695 l0 -9.4922 l-3.9453 0 l0 -4.3164 l1.2695 0 c2.1289 0 3.3008 -0.82031 3.3008 -3.8281 l0 -2.6563 l5.0781 0 l0 6.4844 l4.1406 0 l0 4.3164 l-4.1406 0 l0 8.8867 c0 1.7969 0.87891 2.5977 2.3242 2.5977 l1.8164 0 l0 4.2773 l-3.7109 0 z M357.83209375 19.922 l5.625 0 l0 20.078 l-5.332 0 l-0.13672 -2.4219 c-1.4063 1.7773 -3.6328 2.8125 -6.3867 2.8125 c-4.8242 0 -7.4805 -2.5195 -7.4805 -6.9531 l0 -13.516 l5.6445 0 l0 12.305 c0 2.6563 1.6602 3.6328 3.6133 3.6328 c2.3242 0 4.4336 -1.1719 4.4531 -4.8633 l0 -11.074 z M376.7581875 40 c-3.9063 0 -6.1328 -2.2656 -6.1328 -6.2695 l0 -9.4922 l-3.9453 0 l0 -4.3164 l1.2695 0 c2.1289 0 3.3008 -0.82031 3.3008 -3.8281 l0 -2.6563 l5.0781 0 l0 6.4844 l4.1406 0 l0 4.3164 l-4.1406 0 l0 8.8867 c0 1.7969 0.87891 2.5977 2.3242 2.5977 l1.8164 0 l0 4.2773 l-3.7109 0 z M403.7110625 29.668 l-0.058594 1.3477 l-14.883 0 c0.23438 3.3398 2.4609 4.9414 5.1367 4.9414 c2.0117 0 3.5742 -0.9375 4.3359 -2.7148 l5.1563 0.76172 c-1.3281 4.0625 -4.9414 6.3867 -9.4531 6.3867 c-6.4844 0 -10.723 -3.8281 -10.723 -10.43 s4.3555 -10.469 10.547 -10.469 c5.6836 0 9.9219 3.1445 9.9414 10.176 z M393.8090625 23.477 c-2.5586 0 -4.3359 1.1914 -4.8828 3.8672 l9.2188 0 c-0.29297 -2.5586 -2.0313 -3.8672 -4.3359 -3.8672 z"></path></g><g id="SvgjsG1055" featureKey="sloganFeature-0" transform="matrix(0.6881856896232388,0,0,0.6881856896232388,76.95395719063188,37.779291090698145)" fill="#b59958"><path d="M16.7 12.4 c0 1.0533 -0.2 2.04 -0.6 2.96 s-0.94334 1.7233 -1.63 2.41 s-1.49 1.23 -2.41 1.63 s-1.9 0.6 -2.94 0.6 c-1.0533 0 -2.04 -0.2 -2.96 -0.6 s-1.7233 -0.94334 -2.41 -1.63 s-1.23 -1.49 -1.63 -2.41 s-0.6 -1.9067 -0.6 -2.96 c0 -1.04 0.2 -2.02 0.6 -2.94 s0.94334 -1.7233 1.63 -2.41 s1.49 -1.23 2.41 -1.63 s1.9067 -0.6 2.96 -0.6 c1.04 0 2.02 0.2 2.94 0.6 s1.7233 0.94334 2.41 1.63 s1.23 1.49 1.63 2.41 s0.6 1.9 0.6 2.94 z M15.54 12.4 c0 -0.88 -0.17 -1.71 -0.51 -2.49 s-0.8 -1.46 -1.38 -2.04 s-1.26 -1.04 -2.04 -1.38 s-1.61 -0.51 -2.49 -0.51 s-1.7133 0.17 -2.5 0.51 s-1.47 0.8 -2.05 1.38 s-1.04 1.26 -1.38 2.04 s-0.51 1.61 -0.51 2.49 c0 0.89334 0.17 1.73 0.51 2.51 s0.8 1.46 1.38 2.04 s1.2633 1.04 2.05 1.38 s1.62 0.51 2.5 0.51 s1.71 -0.17 2.49 -0.51 s1.46 -0.8 2.04 -1.38 s1.04 -1.26 1.38 -2.04 s0.51 -1.6167 0.51 -2.51 z M35.844 19.18 c0.06666 0.14666 0.066582 0.29668 -0.000078126 0.45002 s-0.17332 0.26334 -0.31998 0.33 c-0.04 0.01334 -0.07666 0.02334 -0.11 0.03 s-0.07 0.01 -0.11 0.01 c-0.26666 0 -0.44666 -0.12 -0.54 -0.36 l-1.66 -3.9 l-7.64 0 l-1.68 3.9 c-0.06666 0.14666 -0.17332 0.25332 -0.31998 0.31998 s-0.29332 0.06666 -0.43998 0 s-0.25332 -0.17666 -0.31998 -0.33 s-0.06666 -0.30334 0 -0.45 l1.82 -4.26 l4.22 -9.88 c0.09334 -0.24 0.27334 -0.36 0.54 -0.36 c0.25334 0 0.43334 0.12 0.54 0.36 l4.2 9.88 z M32.604 14.559999999999999 l-3.32 -7.8 l-3.32 7.8 l6.64 0 z M51.468 19.82 c-0.10666 0.12 -0.24666 0.18004 -0.42 0.18004 c-0.13334 0 -0.26668 -0.05334 -0.40002 -0.16 l-7.22 -6.92 l0 6.5 c0 0.16 -0.05666 0.29666 -0.17 0.41 s-0.25 0.17 -0.41 0.17 s-0.29666 -0.05666 -0.41 -0.17 s-0.17 -0.25 -0.17 -0.41 l0 -14.02 c0 -0.16 0.05666 -0.29666 0.17 -0.41 s0.25 -0.17 0.41 -0.17 s0.29666 0.05666 0.41 0.17 s0.17 0.25 0.17 0.41 l0 6.5 l7.22 -6.92 c0.12 -0.10666 0.26 -0.16 0.42 -0.16 s0.29334 0.06 0.4 0.18 c0.12 0.10666 0.17666 0.24332 0.17 0.40998 s-0.06332 0.30332 -0.16998 0.40998 l-6.88 6.58 l6.88 6.6 c0.10666 0.10666 0.16 0.24 0.16 0.4 s-0.05334 0.3 -0.16 0.42 z M64.992 19.42 c0 0.16 -0.05666 0.29666 -0.17 0.41 s-0.25668 0.17 -0.43002 0.17 l-5.34 0 c-0.16 0 -0.29666 -0.05666 -0.41 -0.17 s-0.17 -0.25 -0.17 -0.41 l0 -14.02 c0 -0.16 0.05666 -0.29666 0.17 -0.41 s0.25 -0.17 0.41 -0.17 s0.29666 0.05666 0.41 0.17 s0.17 0.25 0.17 0.41 l0 13.44 l4.76 0 c0.17334 0 0.31668 0.05666 0.43002 0.17 s0.17 0.25 0.17 0.41 z M82.79599999999999 19.18 c0.06666 0.14666 0.066582 0.29668 -0.000078126 0.45002 s-0.17332 0.26334 -0.31998 0.33 c-0.04 0.01334 -0.07666 0.02334 -0.11 0.03 s-0.07 0.01 -0.11 0.01 c-0.26666 0 -0.44666 -0.12 -0.54 -0.36 l-1.66 -3.9 l-7.64 0 l-1.68 3.9 c-0.06666 0.14666 -0.17332 0.25332 -0.31998 0.31998 s-0.29332 0.06666 -0.43998 0 s-0.25332 -0.17666 -0.31998 -0.33 s-0.06666 -0.30334 0 -0.45 l1.82 -4.26 l4.22 -9.88 c0.09334 -0.24 0.27334 -0.36 0.54 -0.36 c0.25334 0 0.43334 0.12 0.54 0.36 l4.2 9.88 z M79.556 14.559999999999999 l-3.32 -7.8 l-3.32 7.8 l6.64 0 z M99.24 19.42 c0 0.16 -0.05666 0.29666 -0.17 0.41 s-0.25 0.17 -0.41 0.17 c-0.22666 0 -0.39332 -0.09334 -0.49998 -0.28 l-7.78 -12.3 l0 12 c0 0.16 -0.05666 0.29666 -0.17 0.41 s-0.25 0.17 -0.41 0.17 s-0.29666 -0.05666 -0.41 -0.17 s-0.17 -0.25 -0.17 -0.41 l0 -14.02 c0 -0.16 0.05666 -0.29666 0.17 -0.41 s0.25 -0.17 0.41 -0.17 c0.22666 0 0.39332 0.08666 0.49998 0.26 l7.78 12.32 l0 -12 c0 -0.16 0.05666 -0.29666 0.17 -0.41 s0.25 -0.17 0.41 -0.17 s0.29666 0.05666 0.41 0.17 s0.17 0.25 0.17 0.41 l0 14.02 z M119.14399999999999 12.32 c0 1.1467 -0.19666 2.1934 -0.59 3.14 s-0.90668 1.7567 -1.54 2.43 s-1.35 1.1933 -2.15 1.56 s-1.6067 0.55 -2.42 0.55 l-4.92 0 c-0.24 0 -0.41334 -0.10666 -0.52 -0.32 c-0.08 -0.18666 -0.08 -0.36 0 -0.52 l0 -13.76 c0 -0.16 0.05666 -0.29666 0.17 -0.41 s0.25668 -0.17 0.43002 -0.17 l4.82 0 c1 0 1.9133 0.21666 2.74 0.65 s1.5367 1 2.13 1.7 s1.05 1.5 1.37 2.4 s0.48 1.8167 0.48 2.75 z M117.964 12.32 c0 -0.78666 -0.13334 -1.56 -0.4 -2.32 s-0.64332 -1.4367 -1.13 -2.03 s-1.07 -1.0733 -1.75 -1.44 s-1.4333 -0.55 -2.26 -0.55 l-4.24 0 l0 12.86 l4.26 0 c0.81334 0 1.56 -0.19666 2.24 -0.59 s1.2633 -0.9 1.75 -1.52 s0.86332 -1.3167 1.13 -2.09 s0.4 -1.5467 0.4 -2.32 z M148.79199999999997 14.219999999999999 c0 0.8 -0.15336 1.55 -0.46002 2.25 s-0.72 1.31 -1.24 1.83 s-1.1333 0.93334 -1.84 1.24 s-1.46 0.46 -2.26 0.46 s-1.55 -0.15334 -2.25 -0.46 s-1.31 -0.72 -1.83 -1.24 s-0.93334 -1.13 -1.24 -1.83 s-0.46 -1.45 -0.46 -2.25 l0 -8.82 c0 -0.16 0.05666 -0.29666 0.17 -0.41 s0.25668 -0.17 0.43002 -0.17 c0.16 0 0.29666 0.05666 0.41 0.17 s0.17 0.25 0.17 0.41 l0 8.82 c0 0.64 0.12 1.2367 0.36 1.79 s0.57 1.04 0.99 1.46 s0.90666 0.75 1.46 0.99 s1.15 0.36 1.79 0.36 s1.24 -0.12 1.8 -0.36 s1.05 -0.57 1.47 -0.99 s0.75 -0.90666 0.99 -1.46 s0.36 -1.15 0.36 -1.79 l0 -8.82 c0 -0.16 0.05666 -0.29666 0.17 -0.41 s0.25 -0.17 0.41 -0.17 s0.3 0.05666 0.42 0.17 s0.18 0.25 0.18 0.41 l0 8.82 z M166.51599999999996 19.42 c0 0.16 -0.05666 0.29666 -0.17 0.41 s-0.25 0.17 -0.41 0.17 c-0.22666 0 -0.39332 -0.09334 -0.49998 -0.28 l-7.78 -12.3 l0 12 c0 0.16 -0.05666 0.29666 -0.17 0.41 s-0.25 0.17 -0.41 0.17 s-0.29666 -0.05666 -0.41 -0.17 s-0.17 -0.25 -0.17 -0.41 l0 -14.02 c0 -0.16 0.05666 -0.29666 0.17 -0.41 s0.25 -0.17 0.41 -0.17 c0.22666 0 0.39332 0.08666 0.49998 0.26 l7.78 12.32 l0 -12 c0 -0.16 0.05666 -0.29666 0.17 -0.41 s0.25 -0.17 0.41 -0.17 s0.29666 0.05666 0.41 0.17 s0.17 0.25 0.17 0.41 l0 14.02 z M175.39999999999995 19.42 c0 0.16 -0.05666 0.29666 -0.17 0.41 s-0.25 0.17 -0.41 0.17 c-0.17334 0 -0.31668 -0.05666 -0.43002 -0.17 s-0.17 -0.25 -0.17 -0.41 l0 -14.02 c0 -0.16 0.05666 -0.29666 0.17 -0.41 s0.25668 -0.17 0.43002 -0.17 c0.16 0 0.29666 0.05666 0.41 0.17 s0.17 0.25 0.17 0.41 l0 14.02 z M194.16399999999996 5.26 c0 0.06666 -0.01332 0.14 -0.03998 0.22 l-5.72 14.16 c-0.09334 0.24 -0.27334 0.36 -0.54 0.36 s-0.44666 -0.12 -0.54 -0.36 l-5.72 -14.16 c-0.02666 -0.08 -0.04 -0.15334 -0.04 -0.22 c0 -0.16 0.05666 -0.29666 0.17 -0.41 s0.25 -0.17 0.41 -0.17 c0.26666 0 0.45332 0.12 0.55998 0.36 l5.16 12.8 l5.16 -12.8 c0.09334 -0.24 0.27334 -0.36 0.54 -0.36 c0.16 0 0.3 0.05666 0.42 0.17 s0.18 0.25 0.18 0.41 z M208.40799999999993 19.42 c0 0.16 -0.05666 0.29664 -0.17 0.40998 s-0.25668 0.17 -0.43002 0.17 l-6.88 0 c-0.17334 0 -0.31668 -0.05666 -0.43002 -0.17 s-0.17 -0.25 -0.17 -0.41 l0 -0.04 l0 -0.04 l0 -13.94 c0 -0.16 0.05666 -0.29666 0.17 -0.41 s0.25668 -0.17 0.43002 -0.17 l6.88 0 c0.17334 0 0.31668 0.05666 0.43002 0.17 s0.17 0.25 0.17 0.41 s-0.05666 0.29666 -0.17 0.41 s-0.25668 0.17 -0.43002 0.17 l-6.3 0 l0 5.7 l5.36 0 c0.16 0 0.29666 0.05666 0.41 0.17 s0.17 0.25 0.17 0.41 s-0.05666 0.29666 -0.17 0.41 s-0.25 0.17 -0.41 0.17 l-5.36 0 l0 5.98 l6.3 0 c0.17334 0 0.31668 0.05666 0.43002 0.17 s0.17 0.25668 0.17 0.43002 z M223.21199999999993 8.94 c0 0.57334 -0.10998 1.11 -0.32998 1.61 s-0.51666 0.93666 -0.89 1.31 s-0.81 0.66668 -1.31 0.88002 s-1.0367 0.32 -1.61 0.32 l-0.24 0 l3.62 6.06 c0.05334 0.06666 0.08 0.16666 0.08 0.3 c0 0.16 -0.05666 0.29666 -0.17 0.41 s-0.25 0.17 -0.41 0.17 c-0.21334 0 -0.38668 -0.1 -0.52002 -0.3 l-3.96 -6.64 l-1.34 0 l0 6.36 c0 0.16 -0.05666 0.29666 -0.17 0.41 s-0.25 0.17 -0.41 0.17 c-0.17334 0 -0.31668 -0.05666 -0.43002 -0.17 s-0.17 -0.25 -0.17 -0.41 l0 -14.02 c0 -0.16 0.05666 -0.29666 0.17 -0.41 s0.25668 -0.17 0.43002 -0.17 l3.52 0 c0.57334 0 1.11 0.10666 1.61 0.32 s0.93666 0.50668 1.31 0.88002 s0.67 0.81 0.89 1.31 s0.33 1.0367 0.33 1.61 z M222.03199999999993 8.94 c0 -0.4 -0.07666 -0.77998 -0.23 -1.14 s-0.36334 -0.67666 -0.63 -0.95 s-0.58 -0.48668 -0.94 -0.64002 s-0.74666 -0.23 -1.16 -0.23 l-2.94 0 l0 5.9 l2.94 0 c0.41334 0 0.8 -0.07666 1.16 -0.23 s0.67334 -0.36334 0.94 -0.63 s0.47666 -0.58 0.63 -0.94 s0.23 -0.74 0.23 -1.14 z M237.41599999999994 15.879999999999999 c0 0.56 -0.11002 1.09 -0.33002 1.59 s-0.51666 0.93666 -0.89 1.31 s-0.81 0.67 -1.31 0.89 s-1.0367 0.33 -1.61 0.33 c-0.56 0 -1.09 -0.11 -1.59 -0.33 s-0.93666 -0.51666 -1.31 -0.89 s-0.67 -0.81 -0.89 -1.31 s-0.33 -1.03 -0.33 -1.59 c0 -0.16 0.05666 -0.3 0.17 -0.42 s0.25668 -0.18 0.43002 -0.18 c0.16 0 0.29666 0.06 0.41 0.18 s0.17 0.26 0.17 0.42 c0 0.4 0.07666 0.78 0.23 1.14 s0.36334 0.67334 0.63 0.94 s0.58 0.47666 0.94 0.63 s0.74 0.23 1.14 0.23 s0.78 -0.07666 1.14 -0.23 s0.67666 -0.36334 0.95 -0.63 s0.48668 -0.58 0.64002 -0.94 s0.23 -0.74 0.23 -1.14 c0 -0.65334 -0.17334 -1.17 -0.52 -1.55 s-0.78332 -0.69334 -1.31 -0.94 s-1.0967 -0.46666 -1.71 -0.66 s-1.1833 -0.44 -1.71 -0.74 s-0.96332 -0.68334 -1.31 -1.15 s-0.52 -1.1 -0.52 -1.9 c0 -0.57334 0.11 -1.11 0.33 -1.61 s0.51666 -0.93666 0.89 -1.31 s0.81 -0.66668 1.31 -0.88002 s1.03 -0.32 1.59 -0.32 c0.57334 0 1.11 0.10666 1.61 0.32 s0.93666 0.50668 1.31 0.88002 s0.67 0.81 0.89 1.31 s0.33 1.0367 0.33 1.61 c0 0.16 -0.06 0.29666 -0.18 0.41 s-0.26 0.17 -0.42 0.17 s-0.29666 -0.05666 -0.41 -0.17 s-0.17 -0.25 -0.17 -0.41 c0 -0.4 -0.07666 -0.78 -0.23 -1.14 s-0.36668 -0.67666 -0.64002 -0.95 s-0.59 -0.48668 -0.95 -0.64002 s-0.74 -0.23 -1.14 -0.23 s-0.78 0.07666 -1.14 0.23 s-0.67334 0.36668 -0.94 0.64002 s-0.47666 0.59 -0.63 0.95 s-0.23 0.74 -0.23 1.14 c0 0.62666 0.17334 1.1133 0.52 1.46 s0.78332 0.64 1.31 0.88 s1.0967 0.46 1.71 0.66 s1.1833 0.45334 1.71 0.76 s0.96332 0.70666 1.31 1.2 s0.52 1.1533 0.52 1.98 z M245.85999999999993 19.42 c0 0.16 -0.05666 0.29666 -0.17 0.41 s-0.25 0.17 -0.41 0.17 c-0.17334 0 -0.31668 -0.05666 -0.43002 -0.17 s-0.17 -0.25 -0.17 -0.41 l0 -14.02 c0 -0.16 0.05666 -0.29666 0.17 -0.41 s0.25668 -0.17 0.43002 -0.17 c0.16 0 0.29666 0.05666 0.41 0.17 s0.17 0.25 0.17 0.41 l0 14.02 z M261.4439999999999 5.4 c0 0.16 -0.05664 0.29666 -0.16998 0.41 s-0.25 0.17 -0.41 0.17 l-3.54 0 l0 13.44 c0 0.16 -0.05666 0.29666 -0.17 0.41 s-0.25 0.17 -0.41 0.17 c-0.17334 0 -0.31668 -0.05666 -0.43002 -0.17 s-0.17 -0.25 -0.17 -0.41 l0 -13.44 l-3.54 0 c-0.16 0 -0.29666 -0.05666 -0.41 -0.17 s-0.17 -0.25 -0.17 -0.41 s0.05666 -0.29666 0.17 -0.41 s0.25 -0.17 0.41 -0.17 l8.26 0 c0.16 0 0.29666 0.05666 0.41 0.17 s0.17 0.25 0.17 0.41 z M276.5479999999999 5.4 c0 0.12 -0.02666 0.21334 -0.08 0.28 l-4.58 8.2 l0 5.54 c0 0.16 -0.05666 0.29666 -0.17 0.41 s-0.25 0.17 -0.41 0.17 s-0.29666 -0.05666 -0.41 -0.17 s-0.17 -0.25 -0.17 -0.41 l0 -5.54 l-4.58 -8.2 c-0.05334 -0.06666 -0.08 -0.16 -0.08 -0.28 c0 -0.16 0.05666 -0.29666 0.17 -0.41 s0.25 -0.17 0.41 -0.17 c0.24 0 0.41334 0.1 0.52 0.3 l4.14 7.4 l4.14 -7.4 c0.10666 -0.2 0.28 -0.3 0.52 -0.3 c0.16 0 0.29666 0.05666 0.41 0.17 s0.17 0.25 0.17 0.41 z"></path></g>
			</g>
		</svg>
	